HIERARCHY
ROOT root_translation_joint
{
	OFFSET	0	0	0
	CHANNELS 6 Xposition Yposition Zposition Zrotation Xrotation Yrotation
	JOINT Spine_x_joint
	{
		OFFSET	0	0	0.909008
		CHANNELS 3  Zrotation Xrotation Yrotation
		JOINT Head_x_joint
		{
			OFFSET	0	0	1.59751
			CHANNELS 3  Zrotation Xrotation Yrotation
			JOINT Headendsite_x_joint
			{
				OFFSET	0	0	0.452755
				CHANNELS 3  Zrotation Xrotation Yrotation
				End Site
				{
					OFFSET	0	0	0.0001
				}
			}
		}
		JOINT LeftShoulder_x_joint
		{
			OFFSET	0	0	1.25984
			CHANNELS 3  Zrotation Xrotation Yrotation
			JOINT LeftArm_x_joint
			{
				OFFSET	-0.7874	0	0
				CHANNELS 3  Zrotation Xrotation Yrotation
				JOINT LeftForeArm_x_joint
				{
					OFFSET	-1.29921	0	0
					CHANNELS 3  Zrotation Xrotation Yrotation
					JOINT LeftHand_x_joint
					{
						OFFSET	-1.03081	0	0
						CHANNELS 3  Zrotation Xrotation Yrotation
						JOINT LeftHandPinky1_x_joint
						{
							OFFSET	-0.281979	-0.013815	0
							CHANNELS 3  Zrotation Xrotation Yrotation
							JOINT LeftHandPinky1endsite_x_joint
							{
								OFFSET	-0.19685	0	0
								CHANNELS 3  Zrotation Xrotation Yrotation
								End Site
								{
									OFFSET	-0.0001	0	0
								}
							}
						}
						JOINT LeftHandIndex1_x_joint
						{
							OFFSET	-0.414743	0.013815	0
							CHANNELS 3  Zrotation Xrotation Yrotation
							JOINT LeftHandIndex1endsite_x_joint
							{
								OFFSET	-0.23622	0	0
								CHANNELS 3  Zrotation Xrotation Yrotation
								End Site
								{
									OFFSET	-0.0001	0	0
								}
							}
						}
					}
				}
			}
		}
		JOINT RightShoulder_x_joint
		{
			OFFSET	0	0	1.25984
			CHANNELS 3  Zrotation Xrotation Yrotation
			JOINT RightArm_x_joint
			{
				OFFSET	0.7874	0	0
				CHANNELS 3  Zrotation Xrotation Yrotation
				JOINT RightForeArm_x_joint
				{
					OFFSET	1.29921	0	0
					CHANNELS 3  Zrotation Xrotation Yrotation
					JOINT RightHand_x_joint
					{
						OFFSET	1.03081	0	0
						CHANNELS 3  Zrotation Xrotation Yrotation
						JOINT RightHandPinky1_x_joint
						{
							OFFSET	0.294832	-0.017528	0
							CHANNELS 3  Zrotation Xrotation Yrotation
							JOINT RightHandPinky1endsite_x_joint
							{
								OFFSET	0.19685	0	0
								CHANNELS 3  Zrotation Xrotation Yrotation
								End Site
								{
									OFFSET	0.0001	0	0
								}
							}
						}
						JOINT RightHandIndex1_x_joint
						{
							OFFSET	0.346188	0.017528	0
							CHANNELS 3  Zrotation Xrotation Yrotation
							JOINT RightHandIndex1endsite_x_joint
							{
								OFFSET	0.23622	0	0
								CHANNELS 3  Zrotation Xrotation Yrotation
								End Site
								{
									OFFSET	0.0001	0	0
								}
							}
						}
					}
				}
			}
		}
	}
	JOINT LeftUpLeg_x_joint
	{
		OFFSET	-0.408853	0	0
		CHANNELS 3  Zrotation Xrotation Yrotation
		JOINT LeftLeg_x_joint
		{
			OFFSET	0	0	-1.73605
			CHANNELS 3  Zrotation Xrotation Yrotation
			JOINT LeftFoot_x_joint
			{
				OFFSET	0	0	-1.61351
				CHANNELS 3  Zrotation Xrotation Yrotation
				JOINT LeftToeBase_x_joint
				{
					OFFSET	0	0.510779	-0.136863
					CHANNELS 3  Zrotation Xrotation Yrotation
					JOINT LeftToeBaseendsite_x_joint
					{
						OFFSET	0	0.177165	0
						CHANNELS 3  Zrotation Xrotation Yrotation
						End Site
						{
							OFFSET	0	0.0001	0
						}
					}
				}
			}
		}
	}
	JOINT RightUpLeg_x_joint
	{
		OFFSET	0.408853	0	0
		CHANNELS 3  Zrotation Xrotation Yrotation
		JOINT RightLeg_x_joint
		{
			OFFSET	0	0	-1.73605
			CHANNELS 3  Zrotation Xrotation Yrotation
			JOINT RightFoot_x_joint
			{
				OFFSET	0	0	-1.61351
				CHANNELS 3  Zrotation Xrotation Yrotation
				JOINT RightToeBase_x_joint
				{
					OFFSET	0	0.510779	-0.136863
					CHANNELS 3  Zrotation Xrotation Yrotation
					JOINT RightToeBaseendsite_x_joint
					{
						OFFSET	0	0.177165	0
						CHANNELS 3  Zrotation Xrotation Yrotation
						End Site
						{
							OFFSET	0	0.0001	0
						}
					}
				}
			}
		}
	}
}
MOTION
Frames:	5
Frame Time: 1
-1.70985	6.54211	-9.85113	75.2745	-22.3762	87.4024	-8.27149	-33.7398	-1.87656	21.5115	-6.79968	-6.92997	-0	0	-0	6.91432	-32.7234	2.86339	-3.99589	21.447	-79.7514	-37.4765	-23.3062	3.46313e-15	11.4593	2.95598	14.2728	-0.141111	0.201382	-54.9804	-0	0	-0	-11.0692	12.832	-48.6241	-0	0	-0	-7.35576	-36.8438	-5.97088	52.9938	26.8443	39.4588	28.9699	34.8329	-9.68712e-15	-10.1282	5.82175	-29.5893	-2.06076	-3.3053	58.0332	-0	0	-0	9.05652	8.10669	41.4991	-0	0	-0	14.8385	-1.57536	0.724023	1.74362e-15	-21.0917	4.26117e-16	12.1189	8.21404	-0.303965	1.07556e-15	8.02949	-2.00753e-15	-0	0	-0	-39.6898	-4.65465	-5.49044	-1.46746e-17	-16.4512	-5.18175e-17	-22.9908	10.4686	3.56153	-8.28497e-16	9.526	2.01564e-16	-0	0	-0
-1.7071	6.54341	-9.82779	75.782	-21.3557	87.8667	-6.79464	-34.066	-2.8731	21.4592	-7.08097	-6.86669	-0	0	-0	6.91117	-32.6345	2.93218	-4.28175	21.4958	-79.3831	-36.7945	-23.4053	-1.64622e-14	11.4733	2.91674	14.0743	-0.238621	0.341299	-55.0428	-0	0	-0	-11.3773	13.0441	-48.2813	-0	0	-0	-8.15958	-40.3557	-5.98761	57.7414	28.3371	33.4831	28.1653	35.9168	8.83629e-15	-9.62962	5.65244	-30.1352	-1.89203	-3.1007	58.5862	-0	0	-0	9.11063	8.20907	41.6818	-0	0	-0	12.3157	-0.00508172	-0.261828	-1.25793e-15	-22.6834	8.618e-16	13.2113	7.72155	-0.167976	-1.67775e-15	8.34484	6.02733e-16	-0	0	-0	-40.0497	-3.18969	-5.51394	3.56825e-15	-18.007	1.25414e-15	-23.2185	10.4011	4.02445	2.41986e-15	9.83138	-2.01747e-16	-0	0	-0
-1.7177	6.54612	-9.80806	75.8484	-20.2902	87.6721	-5.09249	-34.3885	-2.90685	21.7013	-7.74557	-7.36325	-0	0	-0	6.96486	-32.1903	2.82163	-4.82793	20.868	-79.0635	-37.2684	-23.0038	-7.77448e-15	11.6419	2.90109	13.8013	-0.00345212	0.00479968	-54.7785	-0	0	-0	-10.7431	12.5789	-48.9373	-0	0	-0	-8.63354	-41.904	-7.01572	59.7096	29.5462	31.1987	28.4345	36.0406	5.90011e-15	-9.86302	5.69078	-29.698	-1.80611	-2.87138	57.8109	-0	0	-0	10.0715	8.735	40.5313	-0	0	-0	12.2585	-0.192784	-0.296251	-3.99545e-15	-22.2906	-2.14839e-15	12.341	7.90373	0.722043	8.5253e-16	8.21415	-4.0169e-16	-0	0	-0	-40.5747	-2.52595	-5.86175	-3.25173e-15	-19.7004	-2.11143e-16	-22.8637	9.67067	5.48293	-8.34759e-16	11.2718	2.02694e-16	-0	0	-0
-1.73624	6.55126	-9.78275	75.8682	-18.9143	87.6578	-4.36568	-34.3047	-3.3441	22.144	-7.99911	-7.62524	-0	0	-0	7.0939	-33.0829	2.47223	-5.52093	21.3255	-78.4712	-38.3071	-21.7113	-2.56756e-15	11.5982	2.92625	13.9699	-0.00363705	0.00554916	-54.4933	-0	0	-0	-10.8849	12.5039	-48.3876	-0	0	-0	-8.52379	-41.538	-7.02703	60.4441	29.3656	30.5901	29.0731	35.7537	9.79795e-15	-9.90339	5.47326	-28.6485	-1.85598	-2.80817	56.5181	-0	0	-0	10.4475	8.82035	39.7464	-0	0	-0	11.3844	-1.1129	-0.707003	-2.72967e-15	-20.7084	1.27509e-15	11.7631	7.65052	1.99686	1.53244e-15	8.27746	4.01755e-16	-0	0	-0	-41.2314	-0.918979	-6.77243	1.02156e-15	-23.1831	2.59495e-15	-21.5951	8.47069	8.12397	-2.88212e-16	13.5849	1.22704e-15	-0	0	-0
-1.75581	6.55635	-9.75396	76.3207	-16.004	87.9963	-5.02829	-33.3619	-3.80903	22.3696	-8.20738	-7.44549	-0	0	-0	7.15969	-33.5406	2.46219	-6.19013	21.6557	-78.1755	-38.6871	-21.5849	-5.13063e-15	11.0982	2.86181	14.2794	-0.383235	0.541928	-54.7549	-0	0	-0	-11.1057	12.7502	-48.3485	-0	0	-0	-9.16799	-43.5117	-6.89885	62.3567	29.8498	27.7389	29.5341	36.3613	1.33297e-14	-9.51003	5.30195	-28.8809	-1.71998	-2.63804	56.8793	-0	0	-0	10.1805	8.7004	40.1101	-0	0	-0	8.49669	-1.15394	-1.56645	7.16089e-16	-19.8107	2.11289e-15	11.8192	7.3626	2.62307	1.75865e-15	8.03527	-1.20453e-15	-0	0	-0	-42.0109	2.60223	-7.48538	-6.816e-15	-29.7742	-9.16071e-16	-22.025	6.02146	12.7431	-2.42967e-16	16.9914	8.31433e-16	-0	0	-0
